<svg xmlns="http://www.w3.org/2000/svg" data-name="Layer 1" viewBox="0 0 64 64" id="shopper"><rect width="2" height="16.763" x="44.476" y="11.005" fill="#7c8fa6" transform="rotate(-17.354 45.476 19.387)"></rect><rect width="8.246" height="2" x="21.853" y="24.387" fill="#7c8fa6" transform="rotate(-75.957 25.976 25.387)"></rect><path fill="#506b8c" d="M31.71265,29.02979l-8-2a1.00316,1.00316,0,0,0-1.20411.69531l-8,28a1.00015,1.00015,0,0,0,.79688,1.26123l12,2A.98439.98439,0,0,0,27.47,59a.99885.99885,0,0,0,.98975-.8584l4-28A1,1,0,0,0,31.71265,29.02979Z"></path><path fill="#bf6560" d="M60.41187,53.66357l-10-28a1.003,1.003,0,0,0-1.229-.62158l-10,3a1.0005,1.0005,0,0,0-.69238,1.16065l6,29a1.00009,1.00009,0,0,0,1.25439.75879l14-4a.99984.99984,0,0,0,.667-1.29786Z"></path><rect width="2" height="8" x="31.976" y="18.387" fill="#7c8fa6"></rect><path fill="#debe95" d="M40.64657,1.4282a2.04674,2.04674,0,0,0-2.42492.68262L36.07107,5.039A2.00057,2.00057,0,0,1,35.675,5.443L23.57034,14.94529l9.08582.36432L38.2894,9.27549,41.61221,4.3986A2.04672,2.04672,0,0,0,40.64657,1.4282Z"></path><path fill="#e6c59b" d="M46.75,11.02l-4.77,3.01-2,1.27-8.73,5.51a5.40247,5.40247,0,0,1-1.16.56l-6.35,2.18c-2.38.81-6.9,2.77-7.78,5.47h-.01L15,33.37l-12-4c.67-1.53,1.33-3.06,2-4.6C6.74,20.17,8.7,14.9,12.96,10.87l9.21-6.6a2.51165,2.51165,0,0,1,3,4.01l-6.23,5.95a.202.202,0,0,0,.15.35l10.98-.65a2.82074,2.82074,0,0,0,1.31-.29l5.91-3.23h.01l2.31-1.26,4.71-2.57a2.52593,2.52593,0,0,1,3.52,1.36A2.60806,2.60806,0,0,1,46.75,11.02Z"></path><path fill="#7c8fa6" d="M41.98,13.39v13h-2v-13a2.99453,2.99453,0,0,0-2.68-2.98l2.31-1.26A4.97367,4.97367,0,0,1,41.98,13.39Z"></path><path fill="#e6cc81" d="M43.46655,25.91455A1.00049,1.00049,0,0,0,42.47,25h-12a1.00049,1.00049,0,0,0-.99658.91455l-3,35A1.00011,1.00011,0,0,0,27.47,62h18a1.00011,1.00011,0,0,0,.99658-1.08545Z"></path><polygon fill="#bfaa6b" points="37.47 53.434 37.47 29 35.47 29 35.47 53.434 30.955 56.143 31.985 57.857 36.47 55.166 40.955 57.857 41.985 56.143 37.47 53.434"></polygon></svg>