<svg xmlns="http://www.w3.org/2000/svg" data-name="Layer 1" viewBox="0 0 512 512" id="edit-user"><path d="M176.9,66.6a74.436,74.436,0,0,0-40.3,66.1,24.369,24.369,0,0,0,.1,2.7C155.6,127.8,179.6,109.8,176.9,66.6Z"></path><path d="M138.2,147.6A74.313,74.313,0,0,0,280.5,159c-47.2-6.9-72-33.8-84.6-55.9a142.264,142.264,0,0,1-7.7-15.8C182.8,125.7,155.2,141.5,138.2,147.6Z"></path><path d="M283.9 147.4a71.883 71.883 0 0 0 1.5-14.7 74.35 74.35 0 0 0-92.7-72.1 122.641 122.641 0 0 0 13.8 36.9C223 125.9 249 142.7 283.9 147.4zM308.4 158.8a26.1 26.1 0 1 0-13.9-48.2 85.659 85.659 0 0 1 0 44.2A25.9 25.9 0 0 0 308.4 158.8zM371 305.7a84.361 84.361 0 0 0-11.2.8 73.847 73.847 0 0 0-40.2 19.9 51.1 51.1 0 0 0-4.5 4.8 74 74 0 0 0 46.6 121.9 71.448 71.448 0 0 0 9.3.6 74 74 0 0 0 0-148zm40.9 65.5l-38.5 38.6a5.383 5.383 0 0 1-.9 1.2 6.091 6.091 0 0 1-3.5 1.7l-37.3 14.1a5.222 5.222 0 0 1-2.1.4 5.6 5.6 0 0 1-4.2-1.8A6.09 6.09 0 0 1 324 419l14.1-37.3a6.091 6.091 0 0 1 1.7-3.5 4.7 4.7 0 0 1 1.2-.9l38.6-38.5a22.875 22.875 0 0 1 32.3 0A23.182 23.182 0 0 1 411.9 371.2z"></path><polygon points="339.8 410.9 357.2 404.3 346.4 393.5 339.8 410.9"></polygon><path d="M326.8 453.5c-.9-.5-1.7-1.1-2.6-1.6l-.9-.6c-.7-.5-1.5-1-2.2-1.5a4.233 4.233 0 0 0-.7-.5c-.9-.7-1.8-1.3-2.7-2-.2-.2-.5-.4-.7-.6-.7-.5-1.3-1.1-2-1.7a5.008 5.008 0 0 1-.8-.7c-.8-.7-1.6-1.4-2.4-2.2l-.2-.2c-.8-.8-1.6-1.5-2.4-2.3l-.7-.7c-.6-.6-1.2-1.3-1.8-1.9a4.349 4.349 0 0 1-.6-.7c-.7-.8-1.5-1.7-2.2-2.6-.2-.2-.3-.4-.5-.6-.6-.7-1.1-1.4-1.6-2.1a5.547 5.547 0 0 0-.6-.8c-.6-.8-1.1-1.6-1.7-2.4-.1-.1-.2-.3-.3-.4-.6-.9-1.2-1.9-1.8-2.8a5.582 5.582 0 0 0-.5-.8c-.4-.7-.9-1.5-1.3-2.2-.2-.3-.3-.5-.5-.8-.5-1-1.1-2-1.6-3l-.3-.6c-.4-.9-.8-1.7-1.2-2.6-.1-.3-.3-.6-.4-.9-.4-.9-.7-1.7-1.1-2.6a1.421 1.421 0 0 1-.2-.6c-.4-1.1-.8-2.1-1.2-3.2l-.3-.9c-.3-.8-.5-1.7-.8-2.6l-.3-.9c-.3-1.1-.6-2.2-.9-3.4 0-.1-.1-.2-.1-.4-.2-1-.5-2-.7-3.1-.1-.3-.1-.7-.2-1-.2-.9-.3-1.9-.5-2.8 0-.2-.1-.5-.1-.7-.2-1.2-.3-2.3-.4-3.5a1.949 1.949 0 0 0-.1-.8c-.1-.9-.1-1.9-.2-2.8a3.4 3.4 0 0 0-.1-1c0-1.2-.1-2.4-.1-3.6a86.107 86.107 0 0 1 21-56.3l2.4-2.7.8-.8c.6-.6 1.1-1.2 1.7-1.7a9.428 9.428 0 0 0 1-1c.5-.5 1.1-1 1.6-1.5a9.958 9.958 0 0 0 1.1-1c.5-.5 1.1-.9 1.6-1.4l1.2-.9c.6-.4 1.1-.9 1.7-1.3l1.2-.9c.6-.4 1.2-.9 1.8-1.3.4-.3.7-.5 1.1-.8.7-.5 1.4-.9 2.1-1.4l.9-.6c1-.6 2.1-1.2 3.1-1.8a.1.1 0 0 0 .1-.1 30.133 30.133 0 0 1 3.1-1.6c.3-.2.7-.3 1-.5a21.4 21.4 0 0 1 2.2-1 6.117 6.117 0 0 1 1.2-.5l2.1-.9c.4-.2.9-.3 1.3-.5.7-.3 1.4-.5 2-.7.5-.2.9-.3 1.4-.5a17.233 17.233 0 0 0 2.1-.7c.5-.1.9-.3 1.4-.4.7-.2 1.4-.4 2.2-.6.4-.1.9-.2 1.3-.3.1 0 .3-.1.4-.1a66.1 66.1 0 0 0-59.7-44.5 102.3 102.3 0 0 1-161.2 0C95.2 253.1 67 282.2 67 317.8v136H327.1Q326.95 453.5 326.8 453.5zM388 347.4l-35.4 35.3L368 398.1l35.3-35.4A10.819 10.819 0 0 0 388 347.4z"></path></svg>